<svg width="7" height="12" viewBox="0 0 7 12" fill="none" xmlns="http://www.w3.org/2000/svg">
<path d="M1.89189 8.60221V7.80663C1.89189 7.36464 1.98935 6.96133 2.18428 6.59669C2.3792 6.23204 2.61425 5.92818 2.88943 5.68508C3.16462 5.44199 3.4398 5.20995 3.71499 4.98895C3.99017 4.75691 4.22522 4.50276 4.42015 4.22652C4.61507 3.93923 4.71253 3.63536 4.71253 3.31492C4.71253 2.92818 4.55201 2.60221 4.23096 2.33702C3.90991 2.07182 3.51433 1.93923 3.04423 1.93923C2.4136 1.93923 1.8059 2.17127 1.22113 2.63536L0 1.19337C0.871417 0.39779 1.94922 0 3.23341 0C4.25389 0 5.13677 0.287293 5.88206 0.861878C6.62735 1.42541 7 2.1768 7 3.11602C7 3.62431 6.89681 4.08287 6.69042 4.49171C6.48403 4.90055 6.23178 5.23757 5.93366 5.50276C5.63554 5.76796 5.33743 6.0221 5.03931 6.26519C4.75266 6.49724 4.50614 6.75691 4.29975 7.0442C4.09337 7.33149 3.99017 7.63536 3.99017 7.9558V8.60221H1.89189ZM1.87469 12V10.0276H3.99017V12H1.87469Z" fill="#B0B3BC"/>
</svg>
